<mxfile host="Electron" agent="Mozilla/5.0 (Windows NT 10.0; Win64; x64) AppleWebKit/537.36 (KHTML, like Gecko) draw.io/27.0.5 Chrome/134.0.6998.205 Electron/35.3.0 Safari/537.36" version="27.0.5">
  <diagram name="PÃ¡gina-1" id="bTBR1Q22H5DqVJQ6NM5s">
    <mxGraphModel dx="3488" dy="2116" grid="1" gridSize="10" guides="1" tooltips="1" connect="1" arrows="1" fold="1" page="1" pageScale="1" pageWidth="827" pageHeight="1169" math="0" shadow="0">
      <root>
        <mxCell id="0" />
        <mxCell id="1" parent="0" />
        <mxCell id="zNWncOscER_x-zfIZh12-1" value="&lt;&lt;abstract&gt;&gt;&#xa;Planet" style="swimlane;fontStyle=1;align=center;verticalAlign=top;childLayout=stackLayout;horizontal=1;startSize=53.53846153846154;horizontalStack=0;resizeParent=1;resizeParentMax=0;resizeLast=0;collapsible=0;marginBottom=0;" vertex="1" parent="1">
          <mxGeometry x="1999" y="784" width="291" height="241.53846153846155" as="geometry" />
        </mxCell>
        <mxCell id="zNWncOscER_x-zfIZh12-2" value="+string name" style="text;strokeColor=none;fillColor=none;align=left;verticalAlign=top;spacingLeft=4;spacingRight=4;overflow=hidden;rotatable=0;points=[[0,0.5],[1,0.5]];portConstraint=eastwest;" vertex="1" parent="zNWncOscER_x-zfIZh12-1">
          <mxGeometry y="53.53846153846154" width="291" height="36" as="geometry" />
        </mxCell>
        <mxCell id="zNWncOscER_x-zfIZh12-3" value="+PlanetType type" style="text;strokeColor=none;fillColor=none;align=left;verticalAlign=top;spacingLeft=4;spacingRight=4;overflow=hidden;rotatable=0;points=[[0,0.5],[1,0.5]];portConstraint=eastwest;" vertex="1" parent="zNWncOscER_x-zfIZh12-1">
          <mxGeometry y="89.53846153846155" width="291" height="36" as="geometry" />
        </mxCell>
        <mxCell id="zNWncOscER_x-zfIZh12-4" value="+number distancefromEarth" style="text;strokeColor=none;fillColor=none;align=left;verticalAlign=top;spacingLeft=4;spacingRight=4;overflow=hidden;rotatable=0;points=[[0,0.5],[1,0.5]];portConstraint=eastwest;" vertex="1" parent="zNWncOscER_x-zfIZh12-1">
          <mxGeometry y="125.53846153846155" width="291" height="36" as="geometry" />
        </mxCell>
        <mxCell id="zNWncOscER_x-zfIZh12-5" value="#Restrictions restrictions" style="text;strokeColor=none;fillColor=none;align=left;verticalAlign=top;spacingLeft=4;spacingRight=4;overflow=hidden;rotatable=0;points=[[0,0.5],[1,0.5]];portConstraint=eastwest;" vertex="1" parent="zNWncOscER_x-zfIZh12-1">
          <mxGeometry y="161.53846153846155" width="291" height="36" as="geometry" />
        </mxCell>
        <mxCell id="zNWncOscER_x-zfIZh12-6" style="line;strokeWidth=1;fillColor=none;align=left;verticalAlign=middle;spacingTop=-1;spacingLeft=3;spacingRight=3;rotatable=0;labelPosition=right;points=[];portConstraint=eastwest;strokeColor=inherit;" vertex="1" parent="zNWncOscER_x-zfIZh12-1">
          <mxGeometry y="197.53846153846155" width="291" height="8" as="geometry" />
        </mxCell>
        <mxCell id="zNWncOscER_x-zfIZh12-7" value="+acceptsCargo(Cargo) : boolean" style="text;strokeColor=none;fillColor=none;align=left;verticalAlign=top;spacingLeft=4;spacingRight=4;overflow=hidden;rotatable=0;points=[[0,0.5],[1,0.5]];portConstraint=eastwest;" vertex="1" parent="zNWncOscER_x-zfIZh12-1">
          <mxGeometry y="205.53846153846155" width="291" height="36" as="geometry" />
        </mxCell>
        <mxCell id="zNWncOscER_x-zfIZh12-8" value="&lt;&lt;abstract&gt;&gt;&#xa;StarShip" style="swimlane;fontStyle=1;align=center;verticalAlign=top;childLayout=stackLayout;horizontal=1;startSize=43.862068965517246;horizontalStack=0;resizeParent=1;resizeParentMax=0;resizeLast=0;collapsible=0;marginBottom=0;" vertex="1" parent="1">
          <mxGeometry x="705" y="688" width="396" height="428.8620689655172" as="geometry" />
        </mxCell>
        <mxCell id="zNWncOscER_x-zfIZh12-9" value="+string name" style="text;strokeColor=none;fillColor=none;align=left;verticalAlign=top;spacingLeft=4;spacingRight=4;overflow=hidden;rotatable=0;points=[[0,0.5],[1,0.5]];portConstraint=eastwest;" vertex="1" parent="zNWncOscER_x-zfIZh12-8">
          <mxGeometry y="43.862068965517246" width="396" height="29" as="geometry" />
        </mxCell>
        <mxCell id="zNWncOscER_x-zfIZh12-10" value="#number speed" style="text;strokeColor=none;fillColor=none;align=left;verticalAlign=top;spacingLeft=4;spacingRight=4;overflow=hidden;rotatable=0;points=[[0,0.5],[1,0.5]];portConstraint=eastwest;" vertex="1" parent="zNWncOscER_x-zfIZh12-8">
          <mxGeometry y="72.86206896551724" width="396" height="29" as="geometry" />
        </mxCell>
        <mxCell id="zNWncOscER_x-zfIZh12-11" value="#number maxCargo" style="text;strokeColor=none;fillColor=none;align=left;verticalAlign=top;spacingLeft=4;spacingRight=4;overflow=hidden;rotatable=0;points=[[0,0.5],[1,0.5]];portConstraint=eastwest;" vertex="1" parent="zNWncOscER_x-zfIZh12-8">
          <mxGeometry y="101.86206896551724" width="396" height="29" as="geometry" />
        </mxCell>
        <mxCell id="zNWncOscER_x-zfIZh12-12" value="+number fuelLevel" style="text;strokeColor=none;fillColor=none;align=left;verticalAlign=top;spacingLeft=4;spacingRight=4;overflow=hidden;rotatable=0;points=[[0,0.5],[1,0.5]];portConstraint=eastwest;" vertex="1" parent="zNWncOscER_x-zfIZh12-8">
          <mxGeometry y="130.86206896551724" width="396" height="29" as="geometry" />
        </mxCell>
        <mxCell id="zNWncOscER_x-zfIZh12-13" value="#number fuelEfficiency" style="text;strokeColor=none;fillColor=none;align=left;verticalAlign=top;spacingLeft=4;spacingRight=4;overflow=hidden;rotatable=0;points=[[0,0.5],[1,0.5]];portConstraint=eastwest;" vertex="1" parent="zNWncOscER_x-zfIZh12-8">
          <mxGeometry y="159.86206896551724" width="396" height="29" as="geometry" />
        </mxCell>
        <mxCell id="zNWncOscER_x-zfIZh12-14" value="+number currentCargo" style="text;strokeColor=none;fillColor=none;align=left;verticalAlign=top;spacingLeft=4;spacingRight=4;overflow=hidden;rotatable=0;points=[[0,0.5],[1,0.5]];portConstraint=eastwest;" vertex="1" parent="zNWncOscER_x-zfIZh12-8">
          <mxGeometry y="188.86206896551724" width="396" height="29" as="geometry" />
        </mxCell>
        <mxCell id="zNWncOscER_x-zfIZh12-15" value="+PlanetType[] compatiblePlanets" style="text;strokeColor=none;fillColor=none;align=left;verticalAlign=top;spacingLeft=4;spacingRight=4;overflow=hidden;rotatable=0;points=[[0,0.5],[1,0.5]];portConstraint=eastwest;" vertex="1" parent="zNWncOscER_x-zfIZh12-8">
          <mxGeometry y="217.86206896551724" width="396" height="29" as="geometry" />
        </mxCell>
        <mxCell id="zNWncOscER_x-zfIZh12-16" style="line;strokeWidth=1;fillColor=none;align=left;verticalAlign=middle;spacingTop=-1;spacingLeft=3;spacingRight=3;rotatable=0;labelPosition=right;points=[];portConstraint=eastwest;strokeColor=inherit;" vertex="1" parent="zNWncOscER_x-zfIZh12-8">
          <mxGeometry y="246.86206896551724" width="396" height="8" as="geometry" />
        </mxCell>
        <mxCell id="zNWncOscER_x-zfIZh12-17" value="+canCarry(Cargo) : boolean" style="text;strokeColor=none;fillColor=none;align=left;verticalAlign=top;spacingLeft=4;spacingRight=4;overflow=hidden;rotatable=0;points=[[0,0.5],[1,0.5]];portConstraint=eastwest;" vertex="1" parent="zNWncOscER_x-zfIZh12-8">
          <mxGeometry y="254.86206896551724" width="396" height="29" as="geometry" />
        </mxCell>
        <mxCell id="zNWncOscER_x-zfIZh12-18" value="+calculateFuelConsumption(number) : number" style="text;strokeColor=none;fillColor=none;align=left;verticalAlign=top;spacingLeft=4;spacingRight=4;overflow=hidden;rotatable=0;points=[[0,0.5],[1,0.5]];portConstraint=eastwest;" vertex="1" parent="zNWncOscER_x-zfIZh12-8">
          <mxGeometry y="283.8620689655172" width="396" height="29" as="geometry" />
        </mxCell>
        <mxCell id="zNWncOscER_x-zfIZh12-19" value="+travelToDestiny(number) : boolean" style="text;strokeColor=none;fillColor=none;align=left;verticalAlign=top;spacingLeft=4;spacingRight=4;overflow=hidden;rotatable=0;points=[[0,0.5],[1,0.5]];portConstraint=eastwest;" vertex="1" parent="zNWncOscER_x-zfIZh12-8">
          <mxGeometry y="312.8620689655172" width="396" height="29" as="geometry" />
        </mxCell>
        <mxCell id="zNWncOscER_x-zfIZh12-20" value="+resetCargo() : void" style="text;strokeColor=none;fillColor=none;align=left;verticalAlign=top;spacingLeft=4;spacingRight=4;overflow=hidden;rotatable=0;points=[[0,0.5],[1,0.5]];portConstraint=eastwest;" vertex="1" parent="zNWncOscER_x-zfIZh12-8">
          <mxGeometry y="341.8620689655172" width="396" height="29" as="geometry" />
        </mxCell>
        <mxCell id="zNWncOscER_x-zfIZh12-21" value="+loadCargo(Cargo) : boolean" style="text;strokeColor=none;fillColor=none;align=left;verticalAlign=top;spacingLeft=4;spacingRight=4;overflow=hidden;rotatable=0;points=[[0,0.5],[1,0.5]];portConstraint=eastwest;" vertex="1" parent="zNWncOscER_x-zfIZh12-8">
          <mxGeometry y="370.8620689655172" width="396" height="29" as="geometry" />
        </mxCell>
        <mxCell id="zNWncOscER_x-zfIZh12-22" value="+unloadCargo() : void" style="text;strokeColor=none;fillColor=none;align=left;verticalAlign=top;spacingLeft=4;spacingRight=4;overflow=hidden;rotatable=0;points=[[0,0.5],[1,0.5]];portConstraint=eastwest;" vertex="1" parent="zNWncOscER_x-zfIZh12-8">
          <mxGeometry y="399.8620689655172" width="396" height="29" as="geometry" />
        </mxCell>
        <mxCell id="zNWncOscER_x-zfIZh12-23" value="Cargo" style="swimlane;fontStyle=1;align=center;verticalAlign=top;childLayout=stackLayout;horizontal=1;startSize=35.55555555555556;horizontalStack=0;resizeParent=1;resizeParentMax=0;resizeLast=0;collapsible=0;marginBottom=0;" vertex="1" parent="1">
          <mxGeometry x="1680" y="1196" width="252" height="161.55555555555554" as="geometry" />
        </mxCell>
        <mxCell id="zNWncOscER_x-zfIZh12-24" value="+CargoType type" style="text;strokeColor=none;fillColor=none;align=left;verticalAlign=top;spacingLeft=4;spacingRight=4;overflow=hidden;rotatable=0;points=[[0,0.5],[1,0.5]];portConstraint=eastwest;" vertex="1" parent="zNWncOscER_x-zfIZh12-23">
          <mxGeometry y="35.55555555555556" width="252" height="36" as="geometry" />
        </mxCell>
        <mxCell id="zNWncOscER_x-zfIZh12-25" value="+number weight" style="text;strokeColor=none;fillColor=none;align=left;verticalAlign=top;spacingLeft=4;spacingRight=4;overflow=hidden;rotatable=0;points=[[0,0.5],[1,0.5]];portConstraint=eastwest;" vertex="1" parent="zNWncOscER_x-zfIZh12-23">
          <mxGeometry y="71.55555555555556" width="252" height="36" as="geometry" />
        </mxCell>
        <mxCell id="zNWncOscER_x-zfIZh12-26" value="+Requirements requirements" style="text;strokeColor=none;fillColor=none;align=left;verticalAlign=top;spacingLeft=4;spacingRight=4;overflow=hidden;rotatable=0;points=[[0,0.5],[1,0.5]];portConstraint=eastwest;" vertex="1" parent="zNWncOscER_x-zfIZh12-23">
          <mxGeometry y="107.55555555555556" width="252" height="36" as="geometry" />
        </mxCell>
        <mxCell id="zNWncOscER_x-zfIZh12-27" style="line;strokeWidth=1;fillColor=none;align=left;verticalAlign=middle;spacingTop=-1;spacingLeft=3;spacingRight=3;rotatable=0;labelPosition=right;points=[];portConstraint=eastwest;strokeColor=inherit;" vertex="1" parent="zNWncOscER_x-zfIZh12-23">
          <mxGeometry y="143.55555555555554" width="252" height="18" as="geometry" />
        </mxCell>
        <mxCell id="zNWncOscER_x-zfIZh12-28" value="&lt;&lt;static&gt;&gt;&#xa;GeneratorMission" style="swimlane;fontStyle=1;align=center;verticalAlign=top;childLayout=stackLayout;horizontal=1;startSize=53.5;horizontalStack=0;resizeParent=1;resizeParentMax=0;resizeLast=0;collapsible=0;marginBottom=0;" vertex="1" parent="1">
          <mxGeometry x="554" y="383" width="411" height="205.5" as="geometry" />
        </mxCell>
        <mxCell id="zNWncOscER_x-zfIZh12-29" style="line;strokeWidth=1;fillColor=none;align=left;verticalAlign=middle;spacingTop=-1;spacingLeft=3;spacingRight=3;rotatable=0;labelPosition=right;points=[];portConstraint=eastwest;strokeColor=inherit;" vertex="1" parent="zNWncOscER_x-zfIZh12-28">
          <mxGeometry y="53.5" width="411" height="8" as="geometry" />
        </mxCell>
        <mxCell id="zNWncOscER_x-zfIZh12-30" value="+generateRandomShips() : StarShip" style="text;strokeColor=none;fillColor=none;align=left;verticalAlign=top;spacingLeft=4;spacingRight=4;overflow=hidden;rotatable=0;points=[[0,0.5],[1,0.5]];portConstraint=eastwest;" vertex="1" parent="zNWncOscER_x-zfIZh12-28">
          <mxGeometry y="61.5" width="411" height="36" as="geometry" />
        </mxCell>
        <mxCell id="zNWncOscER_x-zfIZh12-31" value="+generateRandomPlanets() : Planet" style="text;strokeColor=none;fillColor=none;align=left;verticalAlign=top;spacingLeft=4;spacingRight=4;overflow=hidden;rotatable=0;points=[[0,0.5],[1,0.5]];portConstraint=eastwest;" vertex="1" parent="zNWncOscER_x-zfIZh12-28">
          <mxGeometry y="97.5" width="411" height="36" as="geometry" />
        </mxCell>
        <mxCell id="zNWncOscER_x-zfIZh12-32" value="+generateRandomCargos() : Cargo" style="text;strokeColor=none;fillColor=none;align=left;verticalAlign=top;spacingLeft=4;spacingRight=4;overflow=hidden;rotatable=0;points=[[0,0.5],[1,0.5]];portConstraint=eastwest;" vertex="1" parent="zNWncOscER_x-zfIZh12-28">
          <mxGeometry y="133.5" width="411" height="36" as="geometry" />
        </mxCell>
        <mxCell id="zNWncOscER_x-zfIZh12-33" value="+generateCompatibleMissions() : MissionData" style="text;strokeColor=none;fillColor=none;align=left;verticalAlign=top;spacingLeft=4;spacingRight=4;overflow=hidden;rotatable=0;points=[[0,0.5],[1,0.5]];portConstraint=eastwest;" vertex="1" parent="zNWncOscER_x-zfIZh12-28">
          <mxGeometry y="169.5" width="411" height="36" as="geometry" />
        </mxCell>
        <mxCell id="zNWncOscER_x-zfIZh12-34" value="StarTrip" style="swimlane;fontStyle=1;align=center;verticalAlign=top;childLayout=stackLayout;horizontal=1;startSize=31.11111111111111;horizontalStack=0;resizeParent=1;resizeParentMax=0;resizeLast=0;collapsible=0;marginBottom=0;" vertex="1" parent="1">
          <mxGeometry x="1834" y="350" width="241" height="287.1111111111111" as="geometry" />
        </mxCell>
        <mxCell id="zNWncOscER_x-zfIZh12-35" value="+StarShip starShip" style="text;strokeColor=none;fillColor=none;align=left;verticalAlign=top;spacingLeft=4;spacingRight=4;overflow=hidden;rotatable=0;points=[[0,0.5],[1,0.5]];portConstraint=eastwest;" vertex="1" parent="zNWncOscER_x-zfIZh12-34">
          <mxGeometry y="31.11111111111111" width="241" height="31" as="geometry" />
        </mxCell>
        <mxCell id="zNWncOscER_x-zfIZh12-36" value="+Cargo cargoShip" style="text;strokeColor=none;fillColor=none;align=left;verticalAlign=top;spacingLeft=4;spacingRight=4;overflow=hidden;rotatable=0;points=[[0,0.5],[1,0.5]];portConstraint=eastwest;" vertex="1" parent="zNWncOscER_x-zfIZh12-34">
          <mxGeometry y="62.111111111111114" width="241" height="31" as="geometry" />
        </mxCell>
        <mxCell id="zNWncOscER_x-zfIZh12-37" value="+Planet destinyPlanet" style="text;strokeColor=none;fillColor=none;align=left;verticalAlign=top;spacingLeft=4;spacingRight=4;overflow=hidden;rotatable=0;points=[[0,0.5],[1,0.5]];portConstraint=eastwest;" vertex="1" parent="zNWncOscER_x-zfIZh12-34">
          <mxGeometry y="93.11111111111111" width="241" height="31" as="geometry" />
        </mxCell>
        <mxCell id="zNWncOscER_x-zfIZh12-38" value="-string missionStatus" style="text;strokeColor=none;fillColor=none;align=left;verticalAlign=top;spacingLeft=4;spacingRight=4;overflow=hidden;rotatable=0;points=[[0,0.5],[1,0.5]];portConstraint=eastwest;" vertex="1" parent="zNWncOscER_x-zfIZh12-34">
          <mxGeometry y="124.11111111111111" width="241" height="31" as="geometry" />
        </mxCell>
        <mxCell id="zNWncOscER_x-zfIZh12-39" value="-number fuelNeeded" style="text;strokeColor=none;fillColor=none;align=left;verticalAlign=top;spacingLeft=4;spacingRight=4;overflow=hidden;rotatable=0;points=[[0,0.5],[1,0.5]];portConstraint=eastwest;" vertex="1" parent="zNWncOscER_x-zfIZh12-34">
          <mxGeometry y="155.11111111111111" width="241" height="31" as="geometry" />
        </mxCell>
        <mxCell id="zNWncOscER_x-zfIZh12-40" style="line;strokeWidth=1;fillColor=none;align=left;verticalAlign=middle;spacingTop=-1;spacingLeft=3;spacingRight=3;rotatable=0;labelPosition=right;points=[];portConstraint=eastwest;strokeColor=inherit;" vertex="1" parent="zNWncOscER_x-zfIZh12-34">
          <mxGeometry y="186.11111111111111" width="241" height="8" as="geometry" />
        </mxCell>
        <mxCell id="zNWncOscER_x-zfIZh12-41" value="+startMission() : void" style="text;strokeColor=none;fillColor=none;align=left;verticalAlign=top;spacingLeft=4;spacingRight=4;overflow=hidden;rotatable=0;points=[[0,0.5],[1,0.5]];portConstraint=eastwest;" vertex="1" parent="zNWncOscER_x-zfIZh12-34">
          <mxGeometry y="194.11111111111111" width="241" height="31" as="geometry" />
        </mxCell>
        <mxCell id="zNWncOscER_x-zfIZh12-42" value="+executeMission() : void" style="text;strokeColor=none;fillColor=none;align=left;verticalAlign=top;spacingLeft=4;spacingRight=4;overflow=hidden;rotatable=0;points=[[0,0.5],[1,0.5]];portConstraint=eastwest;" vertex="1" parent="zNWncOscER_x-zfIZh12-34">
          <mxGeometry y="225.11111111111111" width="241" height="31" as="geometry" />
        </mxCell>
        <mxCell id="zNWncOscER_x-zfIZh12-43" value="+generateReport() : string" style="text;strokeColor=none;fillColor=none;align=left;verticalAlign=top;spacingLeft=4;spacingRight=4;overflow=hidden;rotatable=0;points=[[0,0.5],[1,0.5]];portConstraint=eastwest;" vertex="1" parent="zNWncOscER_x-zfIZh12-34">
          <mxGeometry y="256.1111111111111" width="241" height="31" as="geometry" />
        </mxCell>
        <mxCell id="zNWncOscER_x-zfIZh12-44" value="&lt;&lt;static&gt;&gt;&#xa;CreatePlanet" style="swimlane;fontStyle=1;align=center;verticalAlign=top;childLayout=stackLayout;horizontal=1;startSize=57;horizontalStack=0;resizeParent=1;resizeParentMax=0;resizeLast=0;collapsible=0;marginBottom=0;" vertex="1" parent="1">
          <mxGeometry x="132" y="805" width="420" height="179" as="geometry" />
        </mxCell>
        <mxCell id="zNWncOscER_x-zfIZh12-45" style="line;strokeWidth=1;fillColor=none;align=left;verticalAlign=middle;spacingTop=-1;spacingLeft=3;spacingRight=3;rotatable=0;labelPosition=right;points=[];portConstraint=eastwest;strokeColor=inherit;" vertex="1" parent="zNWncOscER_x-zfIZh12-44">
          <mxGeometry y="57" width="420" height="8" as="geometry" />
        </mxCell>
        <mxCell id="zNWncOscER_x-zfIZh12-46" value="+createCorrosivePlanet(string) : CorrosivePlanet" style="text;strokeColor=none;fillColor=none;align=left;verticalAlign=top;spacingLeft=4;spacingRight=4;overflow=hidden;rotatable=0;points=[[0,0.5],[1,0.5]];portConstraint=eastwest;" vertex="1" parent="zNWncOscER_x-zfIZh12-44">
          <mxGeometry y="65" width="420" height="38" as="geometry" />
        </mxCell>
        <mxCell id="zNWncOscER_x-zfIZh12-47" value="+createRockyPlanet(string) : RockyPlanet" style="text;strokeColor=none;fillColor=none;align=left;verticalAlign=top;spacingLeft=4;spacingRight=4;overflow=hidden;rotatable=0;points=[[0,0.5],[1,0.5]];portConstraint=eastwest;" vertex="1" parent="zNWncOscER_x-zfIZh12-44">
          <mxGeometry y="103" width="420" height="38" as="geometry" />
        </mxCell>
        <mxCell id="zNWncOscER_x-zfIZh12-48" value="+createAquaticPlanet(string) : AquaticPlanet" style="text;strokeColor=none;fillColor=none;align=left;verticalAlign=top;spacingLeft=4;spacingRight=4;overflow=hidden;rotatable=0;points=[[0,0.5],[1,0.5]];portConstraint=eastwest;" vertex="1" parent="zNWncOscER_x-zfIZh12-44">
          <mxGeometry y="141" width="420" height="38" as="geometry" />
        </mxCell>
        <mxCell id="zNWncOscER_x-zfIZh12-49" value="&lt;&lt;static&gt;&gt;&#xa;CreateStarShip" style="swimlane;fontStyle=1;align=center;verticalAlign=top;childLayout=stackLayout;horizontal=1;startSize=57;horizontalStack=0;resizeParent=1;resizeParentMax=0;resizeLast=0;collapsible=0;marginBottom=0;" vertex="1" parent="1">
          <mxGeometry x="1151" y="805" width="522" height="179" as="geometry" />
        </mxCell>
        <mxCell id="zNWncOscER_x-zfIZh12-50" style="line;strokeWidth=1;fillColor=none;align=left;verticalAlign=middle;spacingTop=-1;spacingLeft=3;spacingRight=3;rotatable=0;labelPosition=right;points=[];portConstraint=eastwest;strokeColor=inherit;" vertex="1" parent="zNWncOscER_x-zfIZh12-49">
          <mxGeometry y="57" width="522" height="8" as="geometry" />
        </mxCell>
        <mxCell id="zNWncOscER_x-zfIZh12-51" value="+createStarDestroyer(string) : StarDestroyer" style="text;strokeColor=none;fillColor=none;align=left;verticalAlign=top;spacingLeft=4;spacingRight=4;overflow=hidden;rotatable=0;points=[[0,0.5],[1,0.5]];portConstraint=eastwest;" vertex="1" parent="zNWncOscER_x-zfIZh12-49">
          <mxGeometry y="65" width="522" height="38" as="geometry" />
        </mxCell>
        <mxCell id="zNWncOscER_x-zfIZh12-52" value="+createTieExplorer(string) : TieExplorer" style="text;strokeColor=none;fillColor=none;align=left;verticalAlign=top;spacingLeft=4;spacingRight=4;overflow=hidden;rotatable=0;points=[[0,0.5],[1,0.5]];portConstraint=eastwest;" vertex="1" parent="zNWncOscER_x-zfIZh12-49">
          <mxGeometry y="103" width="522" height="38" as="geometry" />
        </mxCell>
        <mxCell id="zNWncOscER_x-zfIZh12-53" value="+createGR75MediumTransport(string) : GR75MediumTransport" style="text;strokeColor=none;fillColor=none;align=left;verticalAlign=top;spacingLeft=4;spacingRight=4;overflow=hidden;rotatable=0;points=[[0,0.5],[1,0.5]];portConstraint=eastwest;" vertex="1" parent="zNWncOscER_x-zfIZh12-49">
          <mxGeometry y="141" width="522" height="38" as="geometry" />
        </mxCell>
        <mxCell id="zNWncOscER_x-zfIZh12-54" value="&lt;&lt;function&gt;&gt;&#xa;isCompatible" style="swimlane;fontStyle=1;align=center;verticalAlign=top;childLayout=stackLayout;horizontal=1;startSize=71;horizontalStack=0;resizeParent=1;resizeParentMax=0;resizeLast=0;collapsible=0;marginBottom=0;" vertex="1" parent="1">
          <mxGeometry x="2520" y="1205" width="521" height="126" as="geometry" />
        </mxCell>
        <mxCell id="zNWncOscER_x-zfIZh12-55" style="line;strokeWidth=1;fillColor=none;align=left;verticalAlign=middle;spacingTop=-1;spacingLeft=3;spacingRight=3;rotatable=0;labelPosition=right;points=[];portConstraint=eastwest;strokeColor=inherit;" vertex="1" parent="zNWncOscER_x-zfIZh12-54">
          <mxGeometry y="71" width="521" height="8" as="geometry" />
        </mxCell>
        <mxCell id="zNWncOscER_x-zfIZh12-56" value="+checkCargoCompatible(Restrictions, Requirements) : boolean" style="text;strokeColor=none;fillColor=none;align=left;verticalAlign=top;spacingLeft=4;spacingRight=4;overflow=hidden;rotatable=0;points=[[0,0.5],[1,0.5]];portConstraint=eastwest;" vertex="1" parent="zNWncOscER_x-zfIZh12-54">
          <mxGeometry y="79" width="521" height="47" as="geometry" />
        </mxCell>
        <mxCell id="zNWncOscER_x-zfIZh12-57" value="&lt;&lt;function&gt;&gt;&#xa;randomChoice" style="swimlane;fontStyle=1;align=center;verticalAlign=top;childLayout=stackLayout;horizontal=1;startSize=62.25;horizontalStack=0;resizeParent=1;resizeParentMax=0;resizeLast=0;collapsible=0;marginBottom=0;" vertex="1" parent="1">
          <mxGeometry x="20" y="1193" width="359" height="154.25" as="geometry" />
        </mxCell>
        <mxCell id="zNWncOscER_x-zfIZh12-58" style="line;strokeWidth=1;fillColor=none;align=left;verticalAlign=middle;spacingTop=-1;spacingLeft=3;spacingRight=3;rotatable=0;labelPosition=right;points=[];portConstraint=eastwest;strokeColor=inherit;" vertex="1" parent="zNWncOscER_x-zfIZh12-57">
          <mxGeometry y="62.25" width="359" height="8" as="geometry" />
        </mxCell>
        <mxCell id="zNWncOscER_x-zfIZh12-59" value="+randomChoice(any[]) : any" style="text;strokeColor=none;fillColor=none;align=left;verticalAlign=top;spacingLeft=4;spacingRight=4;overflow=hidden;rotatable=0;points=[[0,0.5],[1,0.5]];portConstraint=eastwest;" vertex="1" parent="zNWncOscER_x-zfIZh12-57">
          <mxGeometry y="70.25" width="359" height="42" as="geometry" />
        </mxCell>
        <mxCell id="zNWncOscER_x-zfIZh12-60" value="+randomInt(number, number) : number" style="text;strokeColor=none;fillColor=none;align=left;verticalAlign=top;spacingLeft=4;spacingRight=4;overflow=hidden;rotatable=0;points=[[0,0.5],[1,0.5]];portConstraint=eastwest;" vertex="1" parent="zNWncOscER_x-zfIZh12-57">
          <mxGeometry y="112.25" width="359" height="42" as="geometry" />
        </mxCell>
        <mxCell id="zNWncOscER_x-zfIZh12-61" value="&lt;&lt;enumeration&gt;&gt;&#xa;PlanetType" style="swimlane;fontStyle=1;align=center;verticalAlign=top;childLayout=stackLayout;horizontal=1;startSize=55.199999999999996;horizontalStack=0;resizeParent=1;resizeParentMax=0;resizeLast=0;collapsible=0;marginBottom=0;" vertex="1" parent="1">
          <mxGeometry x="2125" y="398" width="158" height="184.2" as="geometry" />
        </mxCell>
        <mxCell id="zNWncOscER_x-zfIZh12-62" value="CORROSIVE" style="text;strokeColor=none;fillColor=none;align=left;verticalAlign=top;spacingLeft=4;spacingRight=4;overflow=hidden;rotatable=0;points=[[0,0.5],[1,0.5]];portConstraint=eastwest;" vertex="1" parent="zNWncOscER_x-zfIZh12-61">
          <mxGeometry y="55.199999999999996" width="158" height="37" as="geometry" />
        </mxCell>
        <mxCell id="zNWncOscER_x-zfIZh12-63" value="ROCKY" style="text;strokeColor=none;fillColor=none;align=left;verticalAlign=top;spacingLeft=4;spacingRight=4;overflow=hidden;rotatable=0;points=[[0,0.5],[1,0.5]];portConstraint=eastwest;" vertex="1" parent="zNWncOscER_x-zfIZh12-61">
          <mxGeometry y="92.19999999999999" width="158" height="37" as="geometry" />
        </mxCell>
        <mxCell id="zNWncOscER_x-zfIZh12-64" value="AQUATIC" style="text;strokeColor=none;fillColor=none;align=left;verticalAlign=top;spacingLeft=4;spacingRight=4;overflow=hidden;rotatable=0;points=[[0,0.5],[1,0.5]];portConstraint=eastwest;" vertex="1" parent="zNWncOscER_x-zfIZh12-61">
          <mxGeometry y="129.2" width="158" height="37" as="geometry" />
        </mxCell>
        <mxCell id="zNWncOscER_x-zfIZh12-65" style="line;strokeWidth=1;fillColor=none;align=left;verticalAlign=middle;spacingTop=-1;spacingLeft=3;spacingRight=3;rotatable=0;labelPosition=right;points=[];portConstraint=eastwest;strokeColor=inherit;" vertex="1" parent="zNWncOscER_x-zfIZh12-61">
          <mxGeometry y="166.2" width="158" height="18" as="geometry" />
        </mxCell>
        <mxCell id="zNWncOscER_x-zfIZh12-66" value="&lt;&lt;enumeration&gt;&gt;&#xa;CargoType" style="swimlane;fontStyle=1;align=center;verticalAlign=top;childLayout=stackLayout;horizontal=1;startSize=55.199999999999996;horizontalStack=0;resizeParent=1;resizeParentMax=0;resizeLast=0;collapsible=0;marginBottom=0;" vertex="1" parent="1">
          <mxGeometry x="2333" y="398" width="260" height="184.2" as="geometry" />
        </mxCell>
        <mxCell id="zNWncOscER_x-zfIZh12-67" value="INDUSTRIAL_EQUIPAMENT" style="text;strokeColor=none;fillColor=none;align=left;verticalAlign=top;spacingLeft=4;spacingRight=4;overflow=hidden;rotatable=0;points=[[0,0.5],[1,0.5]];portConstraint=eastwest;" vertex="1" parent="zNWncOscER_x-zfIZh12-66">
          <mxGeometry y="55.199999999999996" width="260" height="37" as="geometry" />
        </mxCell>
        <mxCell id="zNWncOscER_x-zfIZh12-68" value="BIOTECH" style="text;strokeColor=none;fillColor=none;align=left;verticalAlign=top;spacingLeft=4;spacingRight=4;overflow=hidden;rotatable=0;points=[[0,0.5],[1,0.5]];portConstraint=eastwest;" vertex="1" parent="zNWncOscER_x-zfIZh12-66">
          <mxGeometry y="92.19999999999999" width="260" height="37" as="geometry" />
        </mxCell>
        <mxCell id="zNWncOscER_x-zfIZh12-69" value="DROID_PARTS" style="text;strokeColor=none;fillColor=none;align=left;verticalAlign=top;spacingLeft=4;spacingRight=4;overflow=hidden;rotatable=0;points=[[0,0.5],[1,0.5]];portConstraint=eastwest;" vertex="1" parent="zNWncOscER_x-zfIZh12-66">
          <mxGeometry y="129.2" width="260" height="37" as="geometry" />
        </mxCell>
        <mxCell id="zNWncOscER_x-zfIZh12-70" style="line;strokeWidth=1;fillColor=none;align=left;verticalAlign=middle;spacingTop=-1;spacingLeft=3;spacingRight=3;rotatable=0;labelPosition=right;points=[];portConstraint=eastwest;strokeColor=inherit;" vertex="1" parent="zNWncOscER_x-zfIZh12-66">
          <mxGeometry y="166.2" width="260" height="18" as="geometry" />
        </mxCell>
        <mxCell id="zNWncOscER_x-zfIZh12-71" value="&lt;&lt;enumeration&gt;&gt;&#xa;Requirements" style="swimlane;fontStyle=1;align=center;verticalAlign=top;childLayout=stackLayout;horizontal=1;startSize=55.199999999999996;horizontalStack=0;resizeParent=1;resizeParentMax=0;resizeLast=0;collapsible=0;marginBottom=0;" vertex="1" parent="1">
          <mxGeometry x="2643" y="398" width="209" height="184.2" as="geometry" />
        </mxCell>
        <mxCell id="zNWncOscER_x-zfIZh12-72" value="ANTI_CORROSIVE" style="text;strokeColor=none;fillColor=none;align=left;verticalAlign=top;spacingLeft=4;spacingRight=4;overflow=hidden;rotatable=0;points=[[0,0.5],[1,0.5]];portConstraint=eastwest;" vertex="1" parent="zNWncOscER_x-zfIZh12-71">
          <mxGeometry y="55.199999999999996" width="209" height="37" as="geometry" />
        </mxCell>
        <mxCell id="zNWncOscER_x-zfIZh12-73" value="PRESSURE_SEALED" style="text;strokeColor=none;fillColor=none;align=left;verticalAlign=top;spacingLeft=4;spacingRight=4;overflow=hidden;rotatable=0;points=[[0,0.5],[1,0.5]];portConstraint=eastwest;" vertex="1" parent="zNWncOscER_x-zfIZh12-71">
          <mxGeometry y="92.19999999999999" width="209" height="37" as="geometry" />
        </mxCell>
        <mxCell id="zNWncOscER_x-zfIZh12-74" value="SHOCK_PROOF" style="text;strokeColor=none;fillColor=none;align=left;verticalAlign=top;spacingLeft=4;spacingRight=4;overflow=hidden;rotatable=0;points=[[0,0.5],[1,0.5]];portConstraint=eastwest;" vertex="1" parent="zNWncOscER_x-zfIZh12-71">
          <mxGeometry y="129.2" width="209" height="37" as="geometry" />
        </mxCell>
        <mxCell id="zNWncOscER_x-zfIZh12-75" style="line;strokeWidth=1;fillColor=none;align=left;verticalAlign=middle;spacingTop=-1;spacingLeft=3;spacingRight=3;rotatable=0;labelPosition=right;points=[];portConstraint=eastwest;strokeColor=inherit;" vertex="1" parent="zNWncOscER_x-zfIZh12-71">
          <mxGeometry y="166.2" width="209" height="18" as="geometry" />
        </mxCell>
        <mxCell id="zNWncOscER_x-zfIZh12-76" value="&lt;&lt;enumeration&gt;&gt;&#xa;Restrictions" style="swimlane;fontStyle=1;align=center;verticalAlign=top;childLayout=stackLayout;horizontal=1;startSize=55.199999999999996;horizontalStack=0;resizeParent=1;resizeParentMax=0;resizeLast=0;collapsible=0;marginBottom=0;" vertex="1" parent="1">
          <mxGeometry x="2902" y="398" width="217" height="184.2" as="geometry" />
        </mxCell>
        <mxCell id="zNWncOscER_x-zfIZh12-77" value="ACID_RESISTANT" style="text;strokeColor=none;fillColor=none;align=left;verticalAlign=top;spacingLeft=4;spacingRight=4;overflow=hidden;rotatable=0;points=[[0,0.5],[1,0.5]];portConstraint=eastwest;" vertex="1" parent="zNWncOscER_x-zfIZh12-76">
          <mxGeometry y="55.199999999999996" width="217" height="37" as="geometry" />
        </mxCell>
        <mxCell id="zNWncOscER_x-zfIZh12-78" value="HUMIDITY_SENSITIV" style="text;strokeColor=none;fillColor=none;align=left;verticalAlign=top;spacingLeft=4;spacingRight=4;overflow=hidden;rotatable=0;points=[[0,0.5],[1,0.5]];portConstraint=eastwest;" vertex="1" parent="zNWncOscER_x-zfIZh12-76">
          <mxGeometry y="92.19999999999999" width="217" height="37" as="geometry" />
        </mxCell>
        <mxCell id="zNWncOscER_x-zfIZh12-79" value="NO_LIQUIDS" style="text;strokeColor=none;fillColor=none;align=left;verticalAlign=top;spacingLeft=4;spacingRight=4;overflow=hidden;rotatable=0;points=[[0,0.5],[1,0.5]];portConstraint=eastwest;" vertex="1" parent="zNWncOscER_x-zfIZh12-76">
          <mxGeometry y="129.2" width="217" height="37" as="geometry" />
        </mxCell>
        <mxCell id="zNWncOscER_x-zfIZh12-80" style="line;strokeWidth=1;fillColor=none;align=left;verticalAlign=middle;spacingTop=-1;spacingLeft=3;spacingRight=3;rotatable=0;labelPosition=right;points=[];portConstraint=eastwest;strokeColor=inherit;" vertex="1" parent="zNWncOscER_x-zfIZh12-76">
          <mxGeometry y="166.2" width="217" height="18" as="geometry" />
        </mxCell>
        <mxCell id="zNWncOscER_x-zfIZh12-81" value="MissionData" style="swimlane;fontStyle=1;align=center;verticalAlign=top;childLayout=stackLayout;horizontal=1;startSize=35.55555555555556;horizontalStack=0;resizeParent=1;resizeParentMax=0;resizeLast=0;collapsible=0;marginBottom=0;" vertex="1" parent="1">
          <mxGeometry x="1723" y="820" width="197" height="161.55555555555554" as="geometry" />
        </mxCell>
        <mxCell id="zNWncOscER_x-zfIZh12-82" value="+StarShip starShip" style="text;strokeColor=none;fillColor=none;align=left;verticalAlign=top;spacingLeft=4;spacingRight=4;overflow=hidden;rotatable=0;points=[[0,0.5],[1,0.5]];portConstraint=eastwest;" vertex="1" parent="zNWncOscER_x-zfIZh12-81">
          <mxGeometry y="35.55555555555556" width="197" height="36" as="geometry" />
        </mxCell>
        <mxCell id="zNWncOscER_x-zfIZh12-83" value="+Cargo cargo" style="text;strokeColor=none;fillColor=none;align=left;verticalAlign=top;spacingLeft=4;spacingRight=4;overflow=hidden;rotatable=0;points=[[0,0.5],[1,0.5]];portConstraint=eastwest;" vertex="1" parent="zNWncOscER_x-zfIZh12-81">
          <mxGeometry y="71.55555555555556" width="197" height="36" as="geometry" />
        </mxCell>
        <mxCell id="zNWncOscER_x-zfIZh12-84" value="+Planet planet" style="text;strokeColor=none;fillColor=none;align=left;verticalAlign=top;spacingLeft=4;spacingRight=4;overflow=hidden;rotatable=0;points=[[0,0.5],[1,0.5]];portConstraint=eastwest;" vertex="1" parent="zNWncOscER_x-zfIZh12-81">
          <mxGeometry y="107.55555555555556" width="197" height="36" as="geometry" />
        </mxCell>
        <mxCell id="zNWncOscER_x-zfIZh12-85" style="line;strokeWidth=1;fillColor=none;align=left;verticalAlign=middle;spacingTop=-1;spacingLeft=3;spacingRight=3;rotatable=0;labelPosition=right;points=[];portConstraint=eastwest;strokeColor=inherit;" vertex="1" parent="zNWncOscER_x-zfIZh12-81">
          <mxGeometry y="143.55555555555554" width="197" height="18" as="geometry" />
        </mxCell>
        <mxCell id="zNWncOscER_x-zfIZh12-86" value="CorrosivePlanet" style="swimlane;fontStyle=1;align=center;verticalAlign=top;childLayout=stackLayout;horizontal=1;startSize=38;horizontalStack=0;resizeParent=1;resizeParentMax=0;resizeLast=0;collapsible=0;marginBottom=0;" vertex="1" parent="1">
          <mxGeometry x="1984" y="1238" width="142" height="57" as="geometry" />
        </mxCell>
        <mxCell id="zNWncOscER_x-zfIZh12-87" style="line;strokeWidth=1;fillColor=none;align=left;verticalAlign=middle;spacingTop=-1;spacingLeft=3;spacingRight=3;rotatable=0;labelPosition=right;points=[];portConstraint=eastwest;strokeColor=inherit;" vertex="1" parent="zNWncOscER_x-zfIZh12-86">
          <mxGeometry y="38" width="142" height="19" as="geometry" />
        </mxCell>
        <mxCell id="zNWncOscER_x-zfIZh12-88" value="RockyPlanet" style="swimlane;fontStyle=1;align=center;verticalAlign=top;childLayout=stackLayout;horizontal=1;startSize=38;horizontalStack=0;resizeParent=1;resizeParentMax=0;resizeLast=0;collapsible=0;marginBottom=0;" vertex="1" parent="1">
          <mxGeometry x="2176" y="1238" width="116" height="57" as="geometry" />
        </mxCell>
        <mxCell id="zNWncOscER_x-zfIZh12-89" style="line;strokeWidth=1;fillColor=none;align=left;verticalAlign=middle;spacingTop=-1;spacingLeft=3;spacingRight=3;rotatable=0;labelPosition=right;points=[];portConstraint=eastwest;strokeColor=inherit;" vertex="1" parent="zNWncOscER_x-zfIZh12-88">
          <mxGeometry y="38" width="116" height="19" as="geometry" />
        </mxCell>
        <mxCell id="zNWncOscER_x-zfIZh12-90" value="AquaticPlanet" style="swimlane;fontStyle=1;align=center;verticalAlign=top;childLayout=stackLayout;horizontal=1;startSize=38;horizontalStack=0;resizeParent=1;resizeParentMax=0;resizeLast=0;collapsible=0;marginBottom=0;" vertex="1" parent="1">
          <mxGeometry x="2342" y="1238" width="128" height="57" as="geometry" />
        </mxCell>
        <mxCell id="zNWncOscER_x-zfIZh12-91" style="line;strokeWidth=1;fillColor=none;align=left;verticalAlign=middle;spacingTop=-1;spacingLeft=3;spacingRight=3;rotatable=0;labelPosition=right;points=[];portConstraint=eastwest;strokeColor=inherit;" vertex="1" parent="zNWncOscER_x-zfIZh12-90">
          <mxGeometry y="38" width="128" height="19" as="geometry" />
        </mxCell>
        <mxCell id="zNWncOscER_x-zfIZh12-92" value="StarDestroyer" style="swimlane;fontStyle=1;align=center;verticalAlign=top;childLayout=stackLayout;horizontal=1;startSize=38;horizontalStack=0;resizeParent=1;resizeParentMax=0;resizeLast=0;collapsible=0;marginBottom=0;" vertex="1" parent="1">
          <mxGeometry x="569" y="1238" width="127" height="57" as="geometry" />
        </mxCell>
        <mxCell id="zNWncOscER_x-zfIZh12-93" style="line;strokeWidth=1;fillColor=none;align=left;verticalAlign=middle;spacingTop=-1;spacingLeft=3;spacingRight=3;rotatable=0;labelPosition=right;points=[];portConstraint=eastwest;strokeColor=inherit;" vertex="1" parent="zNWncOscER_x-zfIZh12-92">
          <mxGeometry y="38" width="127" height="19" as="geometry" />
        </mxCell>
        <mxCell id="zNWncOscER_x-zfIZh12-94" value="TieExplorer" style="swimlane;fontStyle=1;align=center;verticalAlign=top;childLayout=stackLayout;horizontal=1;startSize=38;horizontalStack=0;resizeParent=1;resizeParentMax=0;resizeLast=0;collapsible=0;marginBottom=0;" vertex="1" parent="1">
          <mxGeometry x="746" y="1238" width="111" height="57" as="geometry" />
        </mxCell>
        <mxCell id="zNWncOscER_x-zfIZh12-95" style="line;strokeWidth=1;fillColor=none;align=left;verticalAlign=middle;spacingTop=-1;spacingLeft=3;spacingRight=3;rotatable=0;labelPosition=right;points=[];portConstraint=eastwest;strokeColor=inherit;" vertex="1" parent="zNWncOscER_x-zfIZh12-94">
          <mxGeometry y="38" width="111" height="19" as="geometry" />
        </mxCell>
        <mxCell id="zNWncOscER_x-zfIZh12-96" value="GR75MediumTransport" style="swimlane;fontStyle=1;align=center;verticalAlign=top;childLayout=stackLayout;horizontal=1;startSize=38;horizontalStack=0;resizeParent=1;resizeParentMax=0;resizeLast=0;collapsible=0;marginBottom=0;" vertex="1" parent="1">
          <mxGeometry x="1083" y="1238" width="193" height="57" as="geometry" />
        </mxCell>
        <mxCell id="zNWncOscER_x-zfIZh12-97" style="line;strokeWidth=1;fillColor=none;align=left;verticalAlign=middle;spacingTop=-1;spacingLeft=3;spacingRight=3;rotatable=0;labelPosition=right;points=[];portConstraint=eastwest;strokeColor=inherit;" vertex="1" parent="zNWncOscER_x-zfIZh12-96">
          <mxGeometry y="38" width="193" height="19" as="geometry" />
        </mxCell>
        <mxCell id="zNWncOscER_x-zfIZh12-98" value="" style="curved=1;startArrow=block;startSize=16;startFill=0;endArrow=none;exitX=0.35;exitY=1;entryX=0.5;entryY=0;rounded=0;" edge="1" parent="1" source="zNWncOscER_x-zfIZh12-1" target="zNWncOscER_x-zfIZh12-86">
          <mxGeometry relative="1" as="geometry">
            <Array as="points">
              <mxPoint x="2055" y="1157" />
            </Array>
          </mxGeometry>
        </mxCell>
        <mxCell id="zNWncOscER_x-zfIZh12-99" value="" style="curved=1;startArrow=block;startSize=16;startFill=0;endArrow=none;exitX=0.65;exitY=1;entryX=0.5;entryY=0;rounded=0;" edge="1" parent="1" source="zNWncOscER_x-zfIZh12-1" target="zNWncOscER_x-zfIZh12-88">
          <mxGeometry relative="1" as="geometry">
            <Array as="points">
              <mxPoint x="2234" y="1157" />
            </Array>
          </mxGeometry>
        </mxCell>
        <mxCell id="zNWncOscER_x-zfIZh12-100" value="" style="curved=1;startArrow=block;startSize=16;startFill=0;endArrow=none;exitX=0.93;exitY=1;entryX=0.5;entryY=0;rounded=0;" edge="1" parent="1" source="zNWncOscER_x-zfIZh12-1" target="zNWncOscER_x-zfIZh12-90">
          <mxGeometry relative="1" as="geometry">
            <Array as="points">
              <mxPoint x="2406" y="1157" />
            </Array>
          </mxGeometry>
        </mxCell>
        <mxCell id="zNWncOscER_x-zfIZh12-101" value="" style="curved=1;startArrow=block;startSize=16;startFill=0;endArrow=none;exitX=0;exitY=0.93;entryX=0.5;entryY=0;rounded=0;" edge="1" parent="1" source="zNWncOscER_x-zfIZh12-8" target="zNWncOscER_x-zfIZh12-92">
          <mxGeometry relative="1" as="geometry">
            <Array as="points">
              <mxPoint x="633" y="1157" />
            </Array>
          </mxGeometry>
        </mxCell>
        <mxCell id="zNWncOscER_x-zfIZh12-102" value="" style="curved=1;startArrow=block;startSize=16;startFill=0;endArrow=none;exitX=0.28;exitY=1;entryX=0.5;entryY=0;rounded=0;" edge="1" parent="1" source="zNWncOscER_x-zfIZh12-8" target="zNWncOscER_x-zfIZh12-94">
          <mxGeometry relative="1" as="geometry">
            <Array as="points">
              <mxPoint x="802" y="1157" />
            </Array>
          </mxGeometry>
        </mxCell>
        <mxCell id="zNWncOscER_x-zfIZh12-103" value="" style="curved=1;startArrow=block;startSize=16;startFill=0;endArrow=none;exitX=1;exitY=0.92;entryX=0.5;entryY=0;rounded=0;" edge="1" parent="1" source="zNWncOscER_x-zfIZh12-8" target="zNWncOscER_x-zfIZh12-96">
          <mxGeometry relative="1" as="geometry">
            <Array as="points">
              <mxPoint x="1179" y="1157" />
            </Array>
          </mxGeometry>
        </mxCell>
        <mxCell id="zNWncOscER_x-zfIZh12-104" value="canCarry" style="curved=1;startArrow=none;endArrow=open;endSize=12;exitX=1;exitY=0.76;entryX=0;entryY=0.3;rounded=0;" edge="1" parent="1" source="zNWncOscER_x-zfIZh12-8" target="zNWncOscER_x-zfIZh12-23">
          <mxGeometry relative="1" as="geometry">
            <Array as="points">
              <mxPoint x="1342" y="1157" />
            </Array>
          </mxGeometry>
        </mxCell>
        <mxCell id="zNWncOscER_x-zfIZh12-105" value="acceptsCargo" style="curved=1;startArrow=none;endArrow=open;endSize=12;exitX=0;exitY=0.73;entryX=0;entryY=0.22;rounded=0;" edge="1" parent="1" source="zNWncOscER_x-zfIZh12-1" target="zNWncOscER_x-zfIZh12-23">
          <mxGeometry relative="1" as="geometry">
            <Array as="points">
              <mxPoint x="1473" y="1157" />
            </Array>
          </mxGeometry>
        </mxCell>
        <mxCell id="zNWncOscER_x-zfIZh12-106" value="" style="curved=1;startArrow=none;endArrow=open;endSize=12;exitX=0;exitY=0.57;entryX=0.5;entryY=0;rounded=0;" edge="1" parent="1" source="zNWncOscER_x-zfIZh12-34" target="zNWncOscER_x-zfIZh12-8">
          <mxGeometry relative="1" as="geometry">
            <Array as="points">
              <mxPoint x="903" y="663" />
            </Array>
          </mxGeometry>
        </mxCell>
        <mxCell id="zNWncOscER_x-zfIZh12-107" value="" style="curved=1;startArrow=none;endArrow=open;endSize=12;exitX=0.5;exitY=1;entryX=0.9;entryY=0;rounded=0;" edge="1" parent="1" source="zNWncOscER_x-zfIZh12-34" target="zNWncOscER_x-zfIZh12-23">
          <mxGeometry relative="1" as="geometry">
            <Array as="points">
              <mxPoint x="1955" y="1157" />
            </Array>
          </mxGeometry>
        </mxCell>
        <mxCell id="zNWncOscER_x-zfIZh12-108" value="" style="curved=1;startArrow=none;endArrow=open;endSize=12;exitX=1;exitY=0.87;entryX=0.5;entryY=0;rounded=0;" edge="1" parent="1" source="zNWncOscER_x-zfIZh12-34" target="zNWncOscER_x-zfIZh12-1">
          <mxGeometry relative="1" as="geometry">
            <Array as="points">
              <mxPoint x="2144" y="663" />
            </Array>
          </mxGeometry>
        </mxCell>
        <mxCell id="zNWncOscER_x-zfIZh12-109" value="" style="curved=1;dashed=1;startArrow=none;endArrow=open;endSize=12;exitX=1;exitY=0.74;entryX=0.5;entryY=0;rounded=0;" edge="1" parent="1" source="zNWncOscER_x-zfIZh12-28" target="zNWncOscER_x-zfIZh12-49">
          <mxGeometry relative="1" as="geometry">
            <Array as="points">
              <mxPoint x="1412" y="663" />
            </Array>
          </mxGeometry>
        </mxCell>
        <mxCell id="zNWncOscER_x-zfIZh12-110" value="" style="curved=1;dashed=1;startArrow=none;endArrow=open;endSize=12;exitX=0;exitY=0.87;entryX=0.5;entryY=0;rounded=0;" edge="1" parent="1" source="zNWncOscER_x-zfIZh12-28" target="zNWncOscER_x-zfIZh12-44">
          <mxGeometry relative="1" as="geometry">
            <Array as="points">
              <mxPoint x="342" y="663" />
            </Array>
          </mxGeometry>
        </mxCell>
        <mxCell id="zNWncOscER_x-zfIZh12-111" value="" style="curved=1;dashed=1;startArrow=none;endArrow=open;endSize=12;exitX=0;exitY=0.74;entryX=0.3;entryY=0;rounded=0;" edge="1" parent="1" source="zNWncOscER_x-zfIZh12-28" target="zNWncOscER_x-zfIZh12-57">
          <mxGeometry relative="1" as="geometry">
            <Array as="points">
              <mxPoint x="97" y="663" />
              <mxPoint x="97" y="1157" />
            </Array>
          </mxGeometry>
        </mxCell>
        <mxCell id="zNWncOscER_x-zfIZh12-112" value="" style="curved=1;startArrow=none;endArrow=open;endSize=12;exitX=1;exitY=0.74;entryX=0.5;entryY=0;rounded=0;" edge="1" parent="1" source="zNWncOscER_x-zfIZh12-1" target="zNWncOscER_x-zfIZh12-54">
          <mxGeometry relative="1" as="geometry">
            <Array as="points">
              <mxPoint x="2781" y="1157" />
            </Array>
          </mxGeometry>
        </mxCell>
        <mxCell id="zNWncOscER_x-zfIZh12-113" value="" style="curved=1;startArrow=none;endArrow=open;endSize=12;exitX=0.5;exitY=1;entryX=0.78;entryY=0;rounded=0;" edge="1" parent="1" source="zNWncOscER_x-zfIZh12-44" target="zNWncOscER_x-zfIZh12-57">
          <mxGeometry relative="1" as="geometry">
            <Array as="points">
              <mxPoint x="342" y="1157" />
            </Array>
          </mxGeometry>
        </mxCell>
        <mxCell id="zNWncOscER_x-zfIZh12-114" value="" style="curved=1;startArrow=none;endArrow=open;endSize=12;exitX=1;exitY=0.65;entryX=0.5;entryY=0;rounded=0;" edge="1" parent="1" source="zNWncOscER_x-zfIZh12-28" target="zNWncOscER_x-zfIZh12-81">
          <mxGeometry relative="1" as="geometry">
            <Array as="points">
              <mxPoint x="1821" y="663" />
            </Array>
          </mxGeometry>
        </mxCell>
      </root>
    </mxGraphModel>
  </diagram>
</mxfile>
